<svg width="184" height="133" viewBox="0 0 184 133" fill="none" xmlns="http://www.w3.org/2000/svg">
<path d="M9.34256 4.92182C9.34256 7.64007 7.25116 9.84364 4.67128 9.84364C2.0914 9.84364 0 7.64007 0 4.92182C0 2.20357 2.0914 0 4.67128 0C7.25116 0 9.34256 2.20357 9.34256 4.92182Z" fill="#FE9F43"/>
<path d="M9.34256 87.0266C9.34256 89.7449 7.25116 91.9485 4.67128 91.9485C2.0914 91.9485 0 89.7449 0 87.0266C0 84.3084 2.0914 82.1048 4.67128 82.1048C7.25116 82.1048 9.34256 84.3084 9.34256 87.0266Z" fill="#FE9F43"/>
<path d="M79.2113 4.92182C79.2113 7.64007 77.1199 9.84364 74.5401 9.84364C71.9602 9.84364 69.8688 7.64007 69.8688 4.92182C69.8688 2.20357 71.9602 0 74.5401 0C77.1199 0 79.2113 2.20357 79.2113 4.92182Z" fill="#FE9F43"/>
<path d="M79.2113 87.0261C79.2113 89.7443 77.1199 91.9479 74.5401 91.9479C71.9602 91.9479 69.8688 89.7443 69.8688 87.0261C69.8688 84.3078 71.9602 82.1043 74.5401 82.1043C77.1199 82.1043 79.2113 84.3078 79.2113 87.0261Z" fill="#FE9F43"/>
<path d="M149.069 4.92182C149.069 7.64007 146.977 9.84364 144.397 9.84364C141.817 9.84364 139.726 7.64007 139.726 4.92182C139.726 2.20357 141.817 0 144.397 0C146.977 0 149.069 2.20357 149.069 4.92182Z" fill="#FE9F43"/>
<path d="M149.069 87.0268C149.069 89.7451 146.977 91.9486 144.397 91.9486C141.817 91.9486 139.726 89.7451 139.726 87.0268C139.726 84.3086 141.817 82.105 144.397 82.105C146.977 82.105 149.069 84.3086 149.069 87.0268Z" fill="#FE9F43"/>
<path d="M9.34256 45.9739C9.34256 48.6922 7.25116 50.8958 4.67128 50.8958C2.0914 50.8958 0 48.6922 0 45.9739C0 43.2557 2.0914 41.0521 4.67128 41.0521C7.25116 41.0521 9.34256 43.2557 9.34256 45.9739Z" fill="#FE9F43"/>
<path d="M9.34256 128.078C9.34256 130.796 7.25116 133 4.67128 133C2.0914 133 0 130.796 0 128.078C0 125.36 2.0914 123.156 4.67128 123.156C7.25116 123.156 9.34256 125.36 9.34256 128.078Z" fill="#FE9F43"/>
<path d="M79.2113 45.9734C79.2113 48.6917 77.1199 50.8952 74.5401 50.8952C71.9602 50.8952 69.8688 48.6917 69.8688 45.9734C69.8688 43.2552 71.9602 41.0516 74.5401 41.0516C77.1199 41.0516 79.2113 43.2552 79.2113 45.9734Z" fill="#FE9F43"/>
<path d="M79.2113 128.078C79.2113 130.796 77.1199 133 74.5401 133C71.9602 133 69.8688 130.796 69.8688 128.078C69.8688 125.36 71.9602 123.156 74.5401 123.156C77.1199 123.156 79.2113 125.36 79.2113 128.078Z" fill="#FE9F43"/>
<path d="M149.069 45.9738C149.069 48.692 146.977 50.8956 144.397 50.8956C141.817 50.8956 139.726 48.692 139.726 45.9738C139.726 43.2555 141.817 41.0519 144.397 41.0519C146.977 41.0519 149.069 43.2555 149.069 45.9738Z" fill="#FE9F43"/>
<path d="M149.069 128.078C149.069 130.796 146.977 133 144.397 133C141.817 133 139.726 130.796 139.726 128.078C139.726 125.36 141.817 123.156 144.397 123.156C146.977 123.156 149.069 125.36 149.069 128.078Z" fill="#FE9F43"/>
<path d="M44.2739 4.92182C44.2739 7.64007 42.1825 9.84364 39.6026 9.84364C37.0228 9.84364 34.9314 7.64007 34.9314 4.92182C34.9314 2.20357 37.0228 0 39.6026 0C42.1825 0 44.2739 2.20357 44.2739 4.92182Z" fill="#FE9F43"/>
<path d="M44.2739 87.0266C44.2739 89.7449 42.1825 91.9485 39.6026 91.9485C37.0228 91.9485 34.9314 89.7449 34.9314 87.0266C34.9314 84.3084 37.0228 82.1048 39.6026 82.1048C42.1825 82.1048 44.2739 84.3084 44.2739 87.0266Z" fill="#FE9F43"/>
<path d="M114.14 4.92182C114.14 7.64007 112.049 9.84364 109.469 9.84364C106.889 9.84364 104.797 7.64007 104.797 4.92182C104.797 2.20357 106.889 0 109.469 0C112.049 0 114.14 2.20357 114.14 4.92182Z" fill="#FE9F43"/>
<path d="M114.14 87.0261C114.14 89.7443 112.049 91.9479 109.469 91.9479C106.889 91.9479 104.797 89.7443 104.797 87.0261C104.797 84.3078 106.889 82.1043 109.469 82.1043C112.049 82.1043 114.14 84.3078 114.14 87.0261Z" fill="#FE9F43"/>
<path d="M184 4.92182C184 7.64007 181.909 9.84364 179.329 9.84364C176.749 9.84364 174.657 7.64007 174.657 4.92182C174.657 2.20357 176.749 0 179.329 0C181.909 0 184 2.20357 184 4.92182Z" fill="#FE9F43"/>
<path d="M184 87.0268C184 89.7451 181.909 91.9486 179.329 91.9486C176.749 91.9486 174.657 89.7451 174.657 87.0268C174.657 84.3086 176.749 82.105 179.329 82.105C181.909 82.105 184 84.3086 184 87.0268Z" fill="#FE9F43"/>
<path d="M44.2739 45.9739C44.2739 48.6922 42.1825 50.8958 39.6026 50.8958C37.0228 50.8958 34.9314 48.6922 34.9314 45.9739C34.9314 43.2557 37.0228 41.0521 39.6026 41.0521C42.1825 41.0521 44.2739 43.2557 44.2739 45.9739Z" fill="#FE9F43"/>
<path d="M44.2739 128.078C44.2739 130.796 42.1825 133 39.6026 133C37.0228 133 34.9314 130.796 34.9314 128.078C34.9314 125.36 37.0228 123.156 39.6026 123.156C42.1825 123.156 44.2739 125.36 44.2739 128.078Z" fill="#FE9F43"/>
<path d="M114.14 45.9734C114.14 48.6917 112.049 50.8952 109.469 50.8952C106.889 50.8952 104.797 48.6917 104.797 45.9734C104.797 43.2552 106.889 41.0516 109.469 41.0516C112.049 41.0516 114.14 43.2552 114.14 45.9734Z" fill="#FE9F43"/>
<path d="M114.14 128.078C114.14 130.796 112.049 133 109.469 133C106.889 133 104.797 130.796 104.797 128.078C104.797 125.36 106.889 123.156 109.469 123.156C112.049 123.156 114.14 125.36 114.14 128.078Z" fill="#FE9F43"/>
<path d="M184 45.9738C184 48.692 181.909 50.8956 179.329 50.8956C176.749 50.8956 174.657 48.692 174.657 45.9738C174.657 43.2555 176.749 41.0519 179.329 41.0519C181.909 41.0519 184 43.2555 184 45.9738Z" fill="#FE9F43"/>
<path d="M184 128.078C184 130.796 181.909 133 179.329 133C176.749 133 174.657 130.796 174.657 128.078C174.657 125.36 176.749 123.156 179.329 123.156C181.909 123.156 184 125.36 184 128.078Z" fill="#FE9F43"/>
</svg>
